<!DOCTYPE svg PUBLIC "-//W3C//DTD SVG 1.1//EN" "http://www.w3.org/Graphics/SVG/1.1/DTD/svg11.dtd">
<!-- Uploaded to: SVG Repo, www.svgrepo.com, Transformed by: SVG Repo Mixer Tools -->
<svg fill="#ff0000" width="800px" height="800px" viewBox="0 0 256 256" id="Flat" xmlns="http://www.w3.org/2000/svg" stroke="#ff0000">
<g id="SVGRepo_bgCarrier" stroke-width="0"/>
<g id="SVGRepo_tracerCarrier" stroke-linecap="round" stroke-linejoin="round"/>
<g id="SVGRepo_iconCarrier"> <path d="M128,23.99988a104,104,0,1,0,104,104A104.11786,104.11786,0,0,0,128,23.99988Zm-8.00781,32.00293a8,8,0,0,1,16,0v60a8,8,0,1,1-16,0ZM128,207.99988A79.98292,79.98292,0,0,1,83.53516,61.52136a8,8,0,1,1,8.91357,13.28711,63.99978,63.99978,0,1,0,71.08838-.00976,8,8,0,0,1,8.91016-13.28955A79.98322,79.98322,0,0,1,128,207.99988Z"/> </g>
</svg>